<?xml version="1.0" encoding="UTF-8" standalone="no"?>
<!-- Created with Inkscape (http://www.inkscape.org/) -->

<svg
   width="128"
   height="128"
   viewBox="0 0 33.866666 33.866666"
   version="1.1"
   id="svg5"
   xml:space="preserve"
   inkscape:version="1.2.2 (732a01da63, 2022-12-09)"
   sodipodi:docname="icon.svg"
   inkscape:export-filename="icon.png"
   inkscape:export-xdpi="96"
   inkscape:export-ydpi="96"
   xmlns:inkscape="http://www.inkscape.org/namespaces/inkscape"
   xmlns:sodipodi="http://sodipodi.sourceforge.net/DTD/sodipodi-0.dtd"
   xmlns:xlink="http://www.w3.org/1999/xlink"
   xmlns="http://www.w3.org/2000/svg"
   xmlns:svg="http://www.w3.org/2000/svg"><sodipodi:namedview
     id="namedview7"
     pagecolor="#ffffff"
     bordercolor="#000000"
     borderopacity="0.25"
     inkscape:showpageshadow="2"
     inkscape:pageopacity="0.0"
     inkscape:pagecheckerboard="0"
     inkscape:deskcolor="#d1d1d1"
     inkscape:document-units="px"
     showgrid="true"
     showguides="true"
     inkscape:zoom="3.659624"
     inkscape:cx="46.862738"
     inkscape:cy="108.07121"
     inkscape:window-width="2560"
     inkscape:window-height="1361"
     inkscape:window-x="-9"
     inkscape:window-y="-9"
     inkscape:window-maximized="1"
     inkscape:current-layer="layer1"><inkscape:grid
       type="xygrid"
       id="grid2610"
       empspacing="4" /></sodipodi:namedview><defs
     id="defs2"><linearGradient
       inkscape:collect="always"
       id="linearGradient9757"><stop
         style="stop-color:#ffcf00;stop-opacity:1;"
         offset="0.77207392"
         id="stop9753" /><stop
         style="stop-color:#ffd42a;stop-opacity:0;"
         offset="1"
         id="stop9755" /></linearGradient><linearGradient
       inkscape:collect="always"
       id="linearGradient9749"><stop
         style="stop-color:#000000;stop-opacity:1;"
         offset="0"
         id="stop9745" /><stop
         style="stop-color:#8b8569;stop-opacity:1;"
         offset="1"
         id="stop9747" /></linearGradient><linearGradient
       inkscape:collect="always"
       id="linearGradient9717"><stop
         style="stop-color:#6a6a6a;stop-opacity:1;"
         offset="0"
         id="stop9713" /><stop
         style="stop-color:#a6a6a6;stop-opacity:1;"
         offset="1"
         id="stop9715" /></linearGradient><linearGradient
       inkscape:collect="always"
       id="linearGradient9695"><stop
         style="stop-color:#165016;stop-opacity:1;"
         offset="0"
         id="stop9691" /><stop
         style="stop-color:#2bbb2b;stop-opacity:1;"
         offset="1"
         id="stop9693" /></linearGradient><linearGradient
       inkscape:collect="always"
       id="linearGradient8579"><stop
         style="stop-color:#5b5437;stop-opacity:1;"
         offset="0.10472279"
         id="stop8575" /><stop
         style="stop-color:#120e0e;stop-opacity:0;"
         offset="1"
         id="stop8577" /></linearGradient><linearGradient
       id="linearGradient5091"
       inkscape:swatch="solid"><stop
         style="stop-color:#000000;stop-opacity:1;"
         offset="0"
         id="stop5089" /></linearGradient><inkscape:path-effect
       effect="mirror_symmetry"
       start_point="6.349998,-3.17"
       end_point="21.17,-3.17"
       center_point="6.349998,8.9958335"
       id="path-effect3076"
       is_visible="true"
       lpeversion="1.2"
       lpesatellites=""
       mode="free"
       discard_orig_path="false"
       fuse_paths="false"
       oposite_fuse="false"
       split_items="false"
       split_open="false"
       link_styles="false" /><inkscape:path-effect
       effect="mirror_symmetry"
       start_point="-14.816668,-3.175"
       end_point="-14.816668,21.166667"
       center_point="-14.816668,8.9958335"
       id="path-effect3072"
       is_visible="true"
       lpeversion="1.2"
       lpesatellites=""
       mode="free"
       discard_orig_path="false"
       fuse_paths="false"
       oposite_fuse="false"
       split_items="false"
       split_open="false"
       link_styles="false" /><linearGradient
       inkscape:collect="always"
       id="linearGradient3064"><stop
         style="stop-color:#584949;stop-opacity:1;"
         offset="0"
         id="stop3060" /><stop
         style="stop-color:#000000;stop-opacity:0;"
         offset="1"
         id="stop3062" /></linearGradient><linearGradient
       inkscape:collect="always"
       id="linearGradient3056"><stop
         style="stop-color:#584949;stop-opacity:1;"
         offset="0"
         id="stop3052" /><stop
         style="stop-color:#000000;stop-opacity:0;"
         offset="1"
         id="stop3054" /></linearGradient><inkscape:path-effect
       effect="mirror_symmetry"
       start_point="6.349998,-3.17"
       end_point="21.17,-3.17"
       center_point="6.349998,8.9958335"
       id="path-effect2536"
       is_visible="true"
       lpeversion="1.2"
       lpesatellites=""
       mode="free"
       discard_orig_path="false"
       fuse_paths="false"
       oposite_fuse="false"
       split_items="false"
       split_open="false"
       link_styles="false" /><inkscape:path-effect
       effect="mirror_symmetry"
       start_point="-14.816668,-3.175"
       end_point="-14.816668,21.166667"
       center_point="-14.816668,8.9958335"
       id="path-effect2534"
       is_visible="true"
       lpeversion="1.2"
       lpesatellites=""
       mode="free"
       discard_orig_path="false"
       fuse_paths="false"
       oposite_fuse="false"
       split_items="false"
       split_open="false"
       link_styles="false" /><linearGradient
       inkscape:collect="always"
       xlink:href="#linearGradient3056"
       id="linearGradient3058"
       x1="-23.018749"
       y1="21.685834"
       x2="-21.960416"
       y2="21.685834"
       gradientUnits="userSpaceOnUse"
       gradientTransform="translate(29.633335,-6.8791653)" /><linearGradient
       inkscape:collect="always"
       xlink:href="#linearGradient3064"
       id="linearGradient3066"
       x1="-14.552083"
       y1="11.631668"
       x2="-14.552083"
       y2="12.690001"
       gradientUnits="userSpaceOnUse"
       gradientTransform="translate(29.633335,-6.8791653)" /><radialGradient
       inkscape:collect="always"
       xlink:href="#linearGradient8579"
       id="radialGradient8581"
       cx="-14.816668"
       cy="8.9958334"
       fx="-14.816668"
       fy="8.9958334"
       r="10.775031"
       gradientTransform="matrix(2.3225353,1.9170129,-1.2768717,1.5469792,31.08209,23.483209)"
       gradientUnits="userSpaceOnUse" /><meshgradient
       inkscape:collect="always"
       id="meshgradient9669"
       gradientUnits="userSpaceOnUse"
       x="-26.590626"
       y="10.451041"><meshrow
         id="meshrow9733"><meshpatch
           id="meshpatch9735"><stop
             path="c 7.14375,0  14.2875,0  21.4312,0"
             style="stop-color:#ffffff;stop-opacity:1"
             id="stop9737" /><stop
             path="c 0,7.14375  0,14.2875  0,21.4313"
             style="stop-color:#000000;stop-opacity:1"
             id="stop9739" /><stop
             path="c -7.14375,0  -14.2875,0  -21.4312,0"
             style="stop-color:#ffffff;stop-opacity:1"
             id="stop9741" /><stop
             path="c 0,-7.14375  0,-14.2875  0,-21.4313"
             style="stop-color:#000000;stop-opacity:1"
             id="stop9743" /></meshpatch></meshrow></meshgradient><linearGradient
       inkscape:collect="always"
       xlink:href="#linearGradient9695"
       id="linearGradient9697"
       x1="-57.41613"
       y1="6.6620057"
       x2="-48.418751"
       y2="-1.63e-06"
       gradientUnits="userSpaceOnUse" /><linearGradient
       inkscape:collect="always"
       xlink:href="#linearGradient9717"
       id="linearGradient9719"
       x1="-12.303126"
       y1="24.738541"
       x2="-24.341665"
       y2="16.933332"
       gradientUnits="userSpaceOnUse" /><linearGradient
       inkscape:collect="always"
       xlink:href="#linearGradient9749"
       id="linearGradient9751"
       x1="-9.5249996"
       y1="27.516666"
       x2="-23.283333"
       y2="13.758333"
       gradientUnits="userSpaceOnUse" /><radialGradient
       inkscape:collect="always"
       xlink:href="#linearGradient9757"
       id="radialGradient9759"
       cx="-44.185417"
       cy="1.5874996"
       fx="-44.185417"
       fy="1.5874996"
       r="2.1166666"
       gradientUnits="userSpaceOnUse" /></defs><g
     inkscape:label="Слой 1"
     inkscape:groupmode="layer"
     id="layer1"><rect
       style="fill:#2a445a;fill-opacity:1;stroke-width:0.529167;stroke-linecap:round;stroke-linejoin:round;stroke-opacity:0.996078"
       id="rect2780-9"
       width="33.866665"
       height="33.866665"
       x="-1.0172527e-06"
       y="2.7974447e-06"
       rx="4.2333317"
       ry="4.2333331" /><rect
       style="fill:#355570;fill-opacity:1;stroke-width:0.529167;stroke-linecap:round;stroke-linejoin:round;stroke-opacity:0.996078"
       id="rect2780-2-0"
       width="31.75"
       height="31.75"
       x="1.0583333"
       y="1.0583333"
       rx="3.1750021"
       ry="3.1750014" /><g
       id="g1977"
       transform="translate(-0.26458353,0.00999893)"><path
         id="path3068"
         style="fill:url(#radialGradient8581);fill-opacity:1;stroke:none;stroke-width:0.529;stroke-linecap:round;stroke-linejoin:round;stroke-dasharray:none;stroke-opacity:1"
         d="m -25.4,8.9958334 h 10.583332 v 10e-8 l 2e-6,12.6999995 c -1.058334,0 -2.381251,-0.264583 -3.175001,-0.529166 -1.183252,-0.394418 -2.645833,0.79375 -3.439583,0.529166 -0.79375,-0.264583 -3.439583,0.79375 -3.96875,0 -0.529167,-0.79375 0.229975,-2.485074 0,-3.175 -0.264583,-0.79375 0,-3.323735 0,-4.233333 0,-1.058333 0.437195,-1.749531 0.264583,-2.645833 C -25.535694,9.5631924 -25.4,10.054167 -25.4,8.9958334 Z m 21.166664,0 h -10.583332 v 10e-8 l -2e-6,12.6999995 c 1.058334,0 2.381251,-0.264583 3.175001,-0.529166 1.183252,-0.394418 2.645833,0.79375 3.439583,0.529166 0.79375,-0.264583 3.439583,0.79375 3.96875,0 0.529167,-0.79375 -0.229975,-2.485074 0,-3.175 0.264583,-0.79375 0,-3.323735 0,-4.233333 0,-1.058333 -0.437195,-1.749531 -0.264583,-2.645833 0.400277,-2.0784746 0.264583,-1.5875 0.264583,-2.6458336 z m -21.166664,2e-7 h 10.583332 v -10e-8 l 2e-6,-12.6999995 c -1.058334,0 -2.381251,0.264583 -3.175001,0.529166 -1.183252,0.394418 -2.645833,-0.79375 -3.439583,-0.529166 -0.79375,0.264583 -3.439583,-0.79375 -3.96875,0 -0.529167,0.79375 0.229975,2.485074 0,3.175 -0.264583,0.79375 0,3.323735 0,4.233333 0,1.058333 0.437195,1.749531 0.264583,2.645833 C -25.535694,8.4284746 -25.4,7.9375 -25.4,8.9958336 Z m 21.166664,0 h -10.583332 v -10e-8 l -2e-6,-12.6999995 c 1.058334,0 2.381251,0.264583 3.175001,0.529166 1.183252,0.394418 2.645833,-0.79375 3.439583,-0.529166 0.79375,0.264583 3.439583,-0.79375 3.96875,0 0.529167,0.79375 -0.229975,2.485074 0,3.175 0.264583,0.79375 0,3.323735 0,4.233333 0,1.058333 -0.437195,1.749531 -0.264583,2.645833 0.400277,2.0784746 0.264583,1.5875 0.264583,2.6458336 z"
         inkscape:path-effect="#path-effect3072;#path-effect3076"
         inkscape:original-d="m -25.4,8.9958334 h 10.583332 v 10e-8 l 2e-6,12.6999995 c -1.058334,0 -2.381251,-0.264583 -3.175001,-0.529166 -1.183252,-0.394418 -2.645833,0.79375 -3.439583,0.529166 -0.79375,-0.264583 -3.439583,0.79375 -3.96875,0 -0.529167,-0.79375 0.229975,-2.485074 0,-3.175 -0.264583,-0.79375 0,-3.323735 0,-4.233333 0,-1.058333 0.437195,-1.749531 0.264583,-2.645833 C -25.535694,9.5631924 -25.4,10.054167 -25.4,8.9958334 Z"
         class="UnoptimicedTransforms"
         sodipodi:nodetypes="ccccssssssc"
         transform="translate(30.956254,7.1337517)" /><path
         id="rect1161"
         style="fill:#fdef4e;fill-opacity:1;stroke-width:0.529167;stroke-linecap:round;stroke-linejoin:round;stroke-opacity:0.996078;stroke:none"
         d="m -25.4,-3.175 h 10.583332 v 10e-8 l 2e-6,12.6999999 c -1.058334,0 -2.381251,-0.2645833 -3.175001,-0.5291667 -1.183252,-0.3944175 -2.645833,0.79375 -3.439583,0.5291667 -0.79375,-0.2645833 -3.439583,0.79375 -3.96875,0 -0.529167,-0.79375 0.229975,-2.4850746 0,-3.175 -0.264583,-0.79375 0,-3.323735 0,-4.2333333 0,-1.0583334 0.437195,-1.74953142 0.264583,-2.64583337 C -25.535694,-2.607641 -25.4,-2.1166667 -25.4,-3.175 Z m 21.166664,0 h -10.583332 v 10e-8 L -14.81667,9.525 c 1.058334,0 2.381251,-0.2645833 3.175001,-0.5291667 1.183252,-0.3944175 2.645833,0.79375 3.439583,0.5291667 0.79375,-0.2645833 3.439583,0.79375 3.96875,0 0.529167,-0.79375 -0.229975,-2.4850746 0,-3.175 0.264583,-0.79375 0,-3.323735 0,-4.2333333 0,-1.0583334 -0.437195,-1.74953142 -0.264583,-2.64583337 C -4.097642,-2.607641 -4.233336,-2.1166667 -4.233336,-3.175 Z M -25.4,-3.165 h 10.583332 v -10e-8 l 2e-6,-12.6999999 c -1.058334,0 -2.381251,0.264583 -3.175001,0.529167 -1.183252,0.394417 -2.645833,-0.79375 -3.439583,-0.529167 -0.79375,0.264583 -3.439583,-0.79375 -3.96875,0 -0.529167,0.79375 0.229975,2.485075 0,3.175 -0.264583,0.79375 0,3.323735 0,4.2333333 0,1.0583334 0.437195,1.7495314 0.264583,2.6458334 C -25.535694,-3.732359 -25.4,-4.2233333 -25.4,-3.165 Z m 21.166664,0 h -10.583332 v -10e-8 l -2e-6,-12.6999999 c 1.058334,0 2.381251,0.264583 3.175001,0.529167 1.183252,0.394417 2.645833,-0.79375 3.439583,-0.529167 0.79375,0.264583 3.439583,-0.79375 3.96875,0 0.529167,0.79375 -0.229975,2.485075 0,3.175 0.264583,0.79375 0,3.323735 0,4.2333333 0,1.0583334 -0.437195,1.7495314 -0.264583,2.6458334 0.400277,2.0784743 0.264583,1.5875 0.264583,2.6458333 z"
         inkscape:path-effect="#path-effect2534;#path-effect2536"
         inkscape:original-d="m -25.4,-3.175 c 0.79375,0 10.583332,0 10.583332,0 v 10e-8 c 0,0 2e-6,8.4666666 2e-6,12.6999999 -1.058334,0 -2.381251,-0.2645833 -3.175001,-0.5291667 -1.183252,-0.3944175 -2.645833,0.79375 -3.439583,0.5291667 -0.79375,-0.2645833 -3.439583,0.79375 -3.96875,0 -0.529167,-0.79375 0.229975,-2.4850746 0,-3.175 -0.264583,-0.79375 0,-3.323735 0,-4.2333333 0,-1.0583334 0.437195,-1.74953142 0.264583,-2.64583337 C -25.535694,-2.607641 -25.4,-2.1166667 -25.4,-3.175 Z"
         class="UnoptimicedTransforms"
         sodipodi:nodetypes="ccccssssssc"
         transform="translate(29.897918,17.981668)" /><g
         id="g2543"
         transform="translate(64.558334,6.3400027)"><rect
           style="fill:#d7eef4;fill-opacity:1;stroke-width:0.529167;stroke-linecap:round;stroke-linejoin:round;stroke-opacity:0.996078"
           id="rect1163"
           width="16.933334"
           height="20.108334"
           x="-57.943748"
           y="-1.5875003"
           rx="4.7683717e-08"
           ry="4.7683717e-08" /><path
           id="rect1916"
           style="fill:#abc837;stroke-width:0.529167;stroke-linecap:round;stroke-linejoin:round;stroke-opacity:0.996078"
           d="m -57.94375,14.287499 c 0,0 4.505749,-1.388083 11.377083,-0.529166 2.116667,0.264583 5.556249,-0.793751 5.556249,-0.793751 0,1.852083 0,3.704167 0,5.55625 -5.644444,0 -11.288888,0 -16.933332,0 0,-2.116666 0,-2.910416 0,-4.233333 z"
           sodipodi:nodetypes="cscccc" /><rect
           style="fill:#483737;stroke-width:0.529167;stroke-linecap:round;stroke-linejoin:round;stroke-opacity:0.996078"
           id="rect1425"
           width="0.52916664"
           height="6.614583"
           x="-53.181252"
           y="10.847919"
           rx="4.7683717e-08"
           ry="4.7683717e-08" /><path
           style="fill:url(#linearGradient9697);stroke-width:0.529167;stroke-linecap:round;stroke-linejoin:round;stroke-opacity:0.996078;fill-opacity:1"
           d="m -53.710418,0.52916653 c 0.885336,-0.45478554 1.763522,-0.077667 2.116667,0.79374997 0.143364,0.4418617 -0.06706,1.0346623 0.167246,1.467768 0.29267,0.5409927 1.129703,0.8856097 1.420254,1.1780657 0.475259,0.7117393 -0.536161,1.4595273 -0.264583,2.1166663 0.376711,0.911531 2.129588,0.855185 2.332707,1.820349 0.131009,0.6225184 -0.960897,1.0473464 -0.903724,1.6809268 0.05818,0.6447337 1.160774,0.8728537 1.21099,1.5182567 0.05003,0.642967 -0.400346,1.356907 -0.957948,1.680928 -0.713658,0.414705 -1.654525,0.07829 -2.476206,0 -0.317592,-0.03026 -0.621724,-0.157012 -0.939871,-0.180745 -0.438964,-0.03275 -0.879486,0.03995 -1.319438,0.05422 -0.569532,0.01847 -1.149494,0.148576 -1.70901,0.04065 -0.659511,-0.127218 -1.429777,-0.271451 -1.852084,-0.79375 -0.530169,-0.655702 -0.593616,-1.645701 -0.487592,-2.4822311 0.03863,-0.304769 0.228984,-0.574654 0.397637,-0.831427 0.236786,-0.3605034 0.546977,-0.6685994 0.849503,-0.9760214 0.562564,-0.571668 -1.396557,-1.684345 0.0342,-2.324904 0.899592,-0.402752 -0.275122,-1.7925773 0.264584,-2.38125 0.303904,-0.3314772 1.004927,0.053406 1.322916,-0.2645833 0.311411,-0.7214678 0.136708,-1.66974787 0.79375,-2.11666667 z"
           id="path1544"
           sodipodi:nodetypes="ccacaaaaaaaaaaaassacc" /><circle
           style="fill:url(#radialGradient9759);stroke-width:0.529167;stroke-linecap:round;stroke-linejoin:round;stroke-opacity:0.996078;fill-opacity:1"
           id="path1694"
           cx="-44.185417"
           cy="1.5874996"
           r="2.1166666" /></g><rect
         style="fill:url(#linearGradient3058);fill-opacity:1;stroke-width:0.529167;stroke-linecap:round;stroke-linejoin:round;stroke-opacity:0.996078"
         id="rect2661"
         width="1.0583328"
         height="20.108334"
         x="6.6145859"
         y="4.752502"
         rx="4.7683717e-08"
         ry="4.7683717e-08" /><rect
         style="fill:url(#linearGradient3066);fill-opacity:1;stroke-width:0.529167;stroke-linecap:round;stroke-linejoin:round;stroke-opacity:0.996078"
         id="rect3027"
         width="16.933332"
         height="1.0583333"
         x="6.6145859"
         y="4.752502"
         rx="4.7683717e-08"
         ry="4.7683717e-08" /></g><g
       id="g1159"
       transform="translate(35.189584,-0.264583)"><g
         id="g2607"
         transform="translate(-1.0583337,-11.377084)"><rect
           style="fill:#ccc7bd;fill-opacity:0.45343137;stroke-width:0.529167;stroke-linecap:round;stroke-linejoin:round;stroke-opacity:0.996078"
           id="rect2603"
           width="16.933332"
           height="4.7624998"
           x="-32.014584"
           y="36.512501"
           rx="4.7683717e-08"
           ry="4.7683717e-08" /><path
           id="rect359"
           style="fill:#000000;stroke-width:0.529167;stroke-linecap:round;stroke-linejoin:round;stroke-opacity:0.996078"
           d="m -32.014584,35.454166 v 6.879167 h 16.933333 v -6.879167 z m 0.264583,0.264584 h 0.529167 v 0.529166 h -0.529167 z m 1.058334,0 h 0.529166 v 0.529166 h -0.529166 z m 1.058333,0 h 0.529167 v 0.529166 h -0.529167 z m 1.058333,0 h 0.529167 v 0.529166 h -0.529167 z m 1.058334,0 h 0.529166 v 0.529166 h -0.529166 z m 1.058333,0 h 0.529167 v 0.529166 h -0.529167 z m 1.058333,0 h 0.529167 v 0.529166 h -0.529167 z m 1.058334,0 h 0.529166 v 0.529166 h -0.529166 z m 1.058333,0 h 0.529167 v 0.529166 h -0.529167 z m 1.058333,0 h 0.529167 v 0.529166 h -0.529167 z m 1.058334,0 h 0.529166 v 0.529166 h -0.529166 z m 1.058333,0 h 0.529167 v 0.529166 h -0.529167 z m 1.058333,0 h 0.529167 v 0.529166 h -0.529167 z m 1.058334,0 h 0.529166 v 0.529166 h -0.529166 z m 1.058333,0 h 0.529167 v 0.529166 h -0.529167 z m 1.058333,0 h 0.529167 v 0.529166 h -0.529167 z m -15.875,0.79375 h 3.704167 v 4.7625 h -3.704167 z m 4.233334,0 h 3.704166 v 4.7625 h -3.704166 z m 4.233333,0 h 3.704167 v 4.7625 h -3.704167 z m 4.233333,0 h 3.704167 v 4.7625 h -3.704167 z m -12.7,5.027083 h 0.529167 v 0.529167 h -0.529167 z m 1.058334,0 h 0.529166 v 0.529167 h -0.529166 z m 1.058333,0 h 0.529167 v 0.529167 h -0.529167 z m 1.058333,0 h 0.529167 v 0.529167 h -0.529167 z m 1.058334,0 h 0.529166 v 0.529167 h -0.529166 z m 1.058333,0 h 0.529167 v 0.529167 h -0.529167 z m 1.058333,0 h 0.529167 v 0.529167 h -0.529167 z m 1.058334,0 h 0.529166 v 0.529167 h -0.529166 z m 1.058333,0 h 0.529167 v 0.529167 h -0.529167 z m 1.058333,0 h 0.529167 v 0.529167 h -0.529167 z m 1.058334,0 h 0.529166 v 0.529167 h -0.529166 z m 1.058333,0 h 0.529167 v 0.529167 h -0.529167 z m 1.058333,0 h 0.529167 v 0.529167 h -0.529167 z m 1.058334,0 h 0.529166 v 0.529167 h -0.529166 z m 1.058333,0 h 0.529167 v 0.529167 h -0.529167 z m 1.058333,0 h 0.529167 v 0.529167 h -0.529167 z" /></g></g><g
       id="g919"
       transform="translate(37.041666)"><circle
         style="fill:#27221e;stroke-width:0.26458333;stroke-linecap:round;stroke-linejoin:round;stroke-opacity:0.996078;fill-opacity:1;stroke:url(#linearGradient9751);stroke-dasharray:none"
         id="path863"
         cx="-15.875"
         cy="21.166666"
         r="7.4083328" /><path
         id="path4193"
         style="mix-blend-mode:normal;fill:url(#linearGradient9719);fill-opacity:1;stroke:url(#meshgradient9669);stroke-width:0.26458333;stroke-linecap:round;stroke-linejoin:round;stroke-dasharray:none;stroke-opacity:1"
         d="M -15.875,10.583333 A 10.583333,10.583333 0 0 0 -26.458333,21.166667 10.583333,10.583333 0 0 0 -15.875,31.75 10.583333,10.583333 0 0 0 -5.2916667,21.166667 10.583333,10.583333 0 0 0 -15.875,10.583333 Z M -17.991667,12.7 a 3.1749997,3.1749997 0 0 1 3.175,3.175 3.1749997,3.1749997 0 0 1 -3.175,3.175 3.1749997,3.1749997 0 0 1 -3.175,-3.175 3.1749997,3.1749997 0 0 1 3.175,-3.175 z m 7.408334,3.175 a 3.1749997,3.1749997 0 0 1 3.1749997,3.175 3.1749997,3.1749997 0 0 1 -3.1749997,3.175 3.1749997,3.1749997 0 0 1 -3.175,-3.175 3.1749997,3.1749997 0 0 1 3.175,-3.175 z m -10.583334,4.233333 a 3.1749997,3.1749997 0 0 1 3.175,3.175 3.1749997,3.1749997 0 0 1 -3.175,3.175 3.1749997,3.1749997 0 0 1 -3.175,-3.175 3.1749997,3.1749997 0 0 1 3.175,-3.175 z m 5.291667,0.264584 a 0.79375005,0.79375005 0 0 1 0.79375,0.79375 0.79375005,0.79375005 0 0 1 -0.79375,0.79375 0.79375005,0.79375005 0 0 1 -0.79375,-0.79375 0.79375005,0.79375005 0 0 1 0.79375,-0.79375 z m 2.116667,2.910416 a 3.1749997,3.1749997 0 0 1 3.175,3.175 3.1749997,3.1749997 0 0 1 -3.175,3.175 3.1749997,3.1749997 0 0 1 -3.175,-3.175 3.1749997,3.1749997 0 0 1 3.175,-3.175 z" /></g></g><script
     id="mesh_polyfill"
     type="text/javascript">
!function(){const t=&quot;http://www.w3.org/2000/svg&quot;,e=&quot;http://www.w3.org/1999/xlink&quot;,s=&quot;http://www.w3.org/1999/xhtml&quot;,r=2;if(document.createElementNS(t,&quot;meshgradient&quot;).x)return;const n=(t,e,s,r)=&gt;{let n=new x(.5*(e.x+s.x),.5*(e.y+s.y)),o=new x(.5*(t.x+e.x),.5*(t.y+e.y)),i=new x(.5*(s.x+r.x),.5*(s.y+r.y)),a=new x(.5*(n.x+o.x),.5*(n.y+o.y)),h=new x(.5*(n.x+i.x),.5*(n.y+i.y)),l=new x(.5*(a.x+h.x),.5*(a.y+h.y));return[[t,o,a,l],[l,h,i,r]]},o=t=&gt;{let e=t[0].distSquared(t[1]),s=t[2].distSquared(t[3]),r=.25*t[0].distSquared(t[2]),n=.25*t[1].distSquared(t[3]),o=e&gt;s?e:s,i=r&gt;n?r:n;return 18*(o&gt;i?o:i)},i=(t,e)=&gt;Math.sqrt(t.distSquared(e)),a=(t,e)=&gt;t.scale(2/3).add(e.scale(1/3)),h=t=&gt;{let e,s,r,n,o,i,a,h=new g;return t.match(/(\w+\(\s*[^)]+\))+/g).forEach(t=&gt;{let l=t.match(/[\w.-]+/g),d=l.shift();switch(d){case&quot;translate&quot;:2===l.length?e=new g(1,0,0,1,l[0],l[1]):(console.error(&quot;mesh.js: translate does not have 2 arguments!&quot;),e=new g(1,0,0,1,0,0)),h=h.append(e);break;case&quot;scale&quot;:1===l.length?s=new g(l[0],0,0,l[0],0,0):2===l.length?s=new g(l[0],0,0,l[1],0,0):(console.error(&quot;mesh.js: scale does not have 1 or 2 arguments!&quot;),s=new g(1,0,0,1,0,0)),h=h.append(s);break;case&quot;rotate&quot;:if(3===l.length&amp;&amp;(e=new g(1,0,0,1,l[1],l[2]),h=h.append(e)),l[0]){r=l[0]*Math.PI/180;let t=Math.cos(r),e=Math.sin(r);Math.abs(t)&lt;1e-16&amp;&amp;(t=0),Math.abs(e)&lt;1e-16&amp;&amp;(e=0),a=new g(t,e,-e,t,0,0),h=h.append(a)}else console.error(&quot;math.js: No argument to rotate transform!&quot;);3===l.length&amp;&amp;(e=new g(1,0,0,1,-l[1],-l[2]),h=h.append(e));break;case&quot;skewX&quot;:l[0]?(r=l[0]*Math.PI/180,n=Math.tan(r),o=new g(1,0,n,1,0,0),h=h.append(o)):console.error(&quot;math.js: No argument to skewX transform!&quot;);break;case&quot;skewY&quot;:l[0]?(r=l[0]*Math.PI/180,n=Math.tan(r),i=new g(1,n,0,1,0,0),h=h.append(i)):console.error(&quot;math.js: No argument to skewY transform!&quot;);break;case&quot;matrix&quot;:6===l.length?h=h.append(new g(...l)):console.error(&quot;math.js: Incorrect number of arguments for matrix!&quot;);break;default:console.error(&quot;mesh.js: Unhandled transform type: &quot;+d)}}),h},l=t=&gt;{let e=[],s=t.split(/[ ,]+/);for(let t=0,r=s.length-1;t&lt;r;t+=2)e.push(new x(parseFloat(s[t]),parseFloat(s[t+1])));return e},d=(t,e)=&gt;{for(let s in e)t.setAttribute(s,e[s])},c=(t,e,s,r,n)=&gt;{let o,i,a=[0,0,0,0];for(let h=0;h&lt;3;++h)e[h]&lt;t[h]&amp;&amp;e[h]&lt;s[h]||t[h]&lt;e[h]&amp;&amp;s[h]&lt;e[h]?a[h]=0:(a[h]=.5*((e[h]-t[h])/r+(s[h]-e[h])/n),o=Math.abs(3*(e[h]-t[h])/r),i=Math.abs(3*(s[h]-e[h])/n),a[h]&gt;o?a[h]=o:a[h]&gt;i&amp;&amp;(a[h]=i));return a},u=[[1,0,0,0,0,0,0,0,0,0,0,0,0,0,0,0],[0,0,0,0,1,0,0,0,0,0,0,0,0,0,0,0],[-3,3,0,0,-2,-1,0,0,0,0,0,0,0,0,0,0],[2,-2,0,0,1,1,0,0,0,0,0,0,0,0,0,0],[0,0,0,0,0,0,0,0,1,0,0,0,0,0,0,0],[0,0,0,0,0,0,0,0,0,0,0,0,1,0,0,0],[0,0,0,0,0,0,0,0,-3,3,0,0,-2,-1,0,0],[0,0,0,0,0,0,0,0,2,-2,0,0,1,1,0,0],[-3,0,3,0,0,0,0,0,-2,0,-1,0,0,0,0,0],[0,0,0,0,-3,0,3,0,0,0,0,0,-2,0,-1,0],[9,-9,-9,9,6,3,-6,-3,6,-6,3,-3,4,2,2,1],[-6,6,6,-6,-3,-3,3,3,-4,4,-2,2,-2,-2,-1,-1],[2,0,-2,0,0,0,0,0,1,0,1,0,0,0,0,0],[0,0,0,0,2,0,-2,0,0,0,0,0,1,0,1,0],[-6,6,6,-6,-4,-2,4,2,-3,3,-3,3,-2,-1,-2,-1],[4,-4,-4,4,2,2,-2,-2,2,-2,2,-2,1,1,1,1]],f=t=&gt;{let e=[];for(let s=0;s&lt;16;++s){e[s]=0;for(let r=0;r&lt;16;++r)e[s]+=u[s][r]*t[r]}return e},p=(t,e,s)=&gt;{const r=e*e,n=s*s,o=e*e*e,i=s*s*s;return t[0]+t[1]*e+t[2]*r+t[3]*o+t[4]*s+t[5]*s*e+t[6]*s*r+t[7]*s*o+t[8]*n+t[9]*n*e+t[10]*n*r+t[11]*n*o+t[12]*i+t[13]*i*e+t[14]*i*r+t[15]*i*o},y=t=&gt;{let e=[],s=[],r=[];for(let s=0;s&lt;4;++s)e[s]=[],e[s][0]=n(t[0][s],t[1][s],t[2][s],t[3][s]),e[s][1]=[],e[s][1].push(...n(...e[s][0][0])),e[s][1].push(...n(...e[s][0][1])),e[s][2]=[],e[s][2].push(...n(...e[s][1][0])),e[s][2].push(...n(...e[s][1][1])),e[s][2].push(...n(...e[s][1][2])),e[s][2].push(...n(...e[s][1][3]));for(let t=0;t&lt;8;++t){s[t]=[];for(let r=0;r&lt;4;++r)s[t][r]=[],s[t][r][0]=n(e[0][2][t][r],e[1][2][t][r],e[2][2][t][r],e[3][2][t][r]),s[t][r][1]=[],s[t][r][1].push(...n(...s[t][r][0][0])),s[t][r][1].push(...n(...s[t][r][0][1])),s[t][r][2]=[],s[t][r][2].push(...n(...s[t][r][1][0])),s[t][r][2].push(...n(...s[t][r][1][1])),s[t][r][2].push(...n(...s[t][r][1][2])),s[t][r][2].push(...n(...s[t][r][1][3]))}for(let t=0;t&lt;8;++t){r[t]=[];for(let e=0;e&lt;8;++e)r[t][e]=[],r[t][e][0]=s[t][0][2][e],r[t][e][1]=s[t][1][2][e],r[t][e][2]=s[t][2][2][e],r[t][e][3]=s[t][3][2][e]}return r};class x{constructor(t,e){this.x=t||0,this.y=e||0}toString(){return`(x=${this.x}, y=${this.y})`}clone(){return new x(this.x,this.y)}add(t){return new x(this.x+t.x,this.y+t.y)}scale(t){return void 0===t.x?new x(this.x*t,this.y*t):new x(this.x*t.x,this.y*t.y)}distSquared(t){let e=this.x-t.x,s=this.y-t.y;return e*e+s*s}transform(t){let e=this.x*t.a+this.y*t.c+t.e,s=this.x*t.b+this.y*t.d+t.f;return new x(e,s)}}class g{constructor(t,e,s,r,n,o){void 0===t?(this.a=1,this.b=0,this.c=0,this.d=1,this.e=0,this.f=0):(this.a=t,this.b=e,this.c=s,this.d=r,this.e=n,this.f=o)}toString(){return`affine: ${this.a} ${this.c} ${this.e} \n       ${this.b} ${this.d} ${this.f}`}append(t){t instanceof g||console.error(&quot;mesh.js: argument to Affine.append is not affine!&quot;);let e=this.a*t.a+this.c*t.b,s=this.b*t.a+this.d*t.b,r=this.a*t.c+this.c*t.d,n=this.b*t.c+this.d*t.d,o=this.a*t.e+this.c*t.f+this.e,i=this.b*t.e+this.d*t.f+this.f;return new g(e,s,r,n,o,i)}}class w{constructor(t,e){this.nodes=t,this.colors=e}paintCurve(t,e){if(o(this.nodes)&gt;r){const s=n(...this.nodes);let r=[[],[]],o=[[],[]];for(let t=0;t&lt;4;++t)r[0][t]=this.colors[0][t],r[1][t]=(this.colors[0][t]+this.colors[1][t])/2,o[0][t]=r[1][t],o[1][t]=this.colors[1][t];let i=new w(s[0],r),a=new w(s[1],o);i.paintCurve(t,e),a.paintCurve(t,e)}else{let s=Math.round(this.nodes[0].x);if(s&gt;=0&amp;&amp;s&lt;e){let r=4*(~~this.nodes[0].y*e+s);t[r]=Math.round(this.colors[0][0]),t[r+1]=Math.round(this.colors[0][1]),t[r+2]=Math.round(this.colors[0][2]),t[r+3]=Math.round(this.colors[0][3])}}}}class m{constructor(t,e){this.nodes=t,this.colors=e}split(){let t=[[],[],[],[]],e=[[],[],[],[]],s=[[[],[]],[[],[]]],r=[[[],[]],[[],[]]];for(let s=0;s&lt;4;++s){const r=n(this.nodes[0][s],this.nodes[1][s],this.nodes[2][s],this.nodes[3][s]);t[0][s]=r[0][0],t[1][s]=r[0][1],t[2][s]=r[0][2],t[3][s]=r[0][3],e[0][s]=r[1][0],e[1][s]=r[1][1],e[2][s]=r[1][2],e[3][s]=r[1][3]}for(let t=0;t&lt;4;++t)s[0][0][t]=this.colors[0][0][t],s[0][1][t]=this.colors[0][1][t],s[1][0][t]=(this.colors[0][0][t]+this.colors[1][0][t])/2,s[1][1][t]=(this.colors[0][1][t]+this.colors[1][1][t])/2,r[0][0][t]=s[1][0][t],r[0][1][t]=s[1][1][t],r[1][0][t]=this.colors[1][0][t],r[1][1][t]=this.colors[1][1][t];return[new m(t,s),new m(e,r)]}paint(t,e){let s,n=!1;for(let t=0;t&lt;4;++t)if((s=o([this.nodes[0][t],this.nodes[1][t],this.nodes[2][t],this.nodes[3][t]]))&gt;r){n=!0;break}if(n){let s=this.split();s[0].paint(t,e),s[1].paint(t,e)}else{new w([...this.nodes[0]],[...this.colors[0]]).paintCurve(t,e)}}}class b{constructor(t){this.readMesh(t),this.type=t.getAttribute(&quot;type&quot;)||&quot;bilinear&quot;}readMesh(t){let e=[[]],s=[[]],r=Number(t.getAttribute(&quot;x&quot;)),n=Number(t.getAttribute(&quot;y&quot;));e[0][0]=new x(r,n);let o=t.children;for(let t=0,r=o.length;t&lt;r;++t){e[3*t+1]=[],e[3*t+2]=[],e[3*t+3]=[],s[t+1]=[];let r=o[t].children;for(let n=0,o=r.length;n&lt;o;++n){let o=r[n].children;for(let r=0,i=o.length;r&lt;i;++r){let i=r;0!==t&amp;&amp;++i;let h,d=o[r].getAttribute(&quot;path&quot;),c=&quot;l&quot;;null!=d&amp;&amp;(c=(h=d.match(/\s*([lLcC])\s*(.*)/))[1]);let u=l(h[2]);switch(c){case&quot;l&quot;:0===i?(e[3*t][3*n+3]=u[0].add(e[3*t][3*n]),e[3*t][3*n+1]=a(e[3*t][3*n],e[3*t][3*n+3]),e[3*t][3*n+2]=a(e[3*t][3*n+3],e[3*t][3*n])):1===i?(e[3*t+3][3*n+3]=u[0].add(e[3*t][3*n+3]),e[3*t+1][3*n+3]=a(e[3*t][3*n+3],e[3*t+3][3*n+3]),e[3*t+2][3*n+3]=a(e[3*t+3][3*n+3],e[3*t][3*n+3])):2===i?(0===n&amp;&amp;(e[3*t+3][3*n+0]=u[0].add(e[3*t+3][3*n+3])),e[3*t+3][3*n+1]=a(e[3*t+3][3*n],e[3*t+3][3*n+3]),e[3*t+3][3*n+2]=a(e[3*t+3][3*n+3],e[3*t+3][3*n])):(e[3*t+1][3*n]=a(e[3*t][3*n],e[3*t+3][3*n]),e[3*t+2][3*n]=a(e[3*t+3][3*n],e[3*t][3*n]));break;case&quot;L&quot;:0===i?(e[3*t][3*n+3]=u[0],e[3*t][3*n+1]=a(e[3*t][3*n],e[3*t][3*n+3]),e[3*t][3*n+2]=a(e[3*t][3*n+3],e[3*t][3*n])):1===i?(e[3*t+3][3*n+3]=u[0],e[3*t+1][3*n+3]=a(e[3*t][3*n+3],e[3*t+3][3*n+3]),e[3*t+2][3*n+3]=a(e[3*t+3][3*n+3],e[3*t][3*n+3])):2===i?(0===n&amp;&amp;(e[3*t+3][3*n+0]=u[0]),e[3*t+3][3*n+1]=a(e[3*t+3][3*n],e[3*t+3][3*n+3]),e[3*t+3][3*n+2]=a(e[3*t+3][3*n+3],e[3*t+3][3*n])):(e[3*t+1][3*n]=a(e[3*t][3*n],e[3*t+3][3*n]),e[3*t+2][3*n]=a(e[3*t+3][3*n],e[3*t][3*n]));break;case&quot;c&quot;:0===i?(e[3*t][3*n+1]=u[0].add(e[3*t][3*n]),e[3*t][3*n+2]=u[1].add(e[3*t][3*n]),e[3*t][3*n+3]=u[2].add(e[3*t][3*n])):1===i?(e[3*t+1][3*n+3]=u[0].add(e[3*t][3*n+3]),e[3*t+2][3*n+3]=u[1].add(e[3*t][3*n+3]),e[3*t+3][3*n+3]=u[2].add(e[3*t][3*n+3])):2===i?(e[3*t+3][3*n+2]=u[0].add(e[3*t+3][3*n+3]),e[3*t+3][3*n+1]=u[1].add(e[3*t+3][3*n+3]),0===n&amp;&amp;(e[3*t+3][3*n+0]=u[2].add(e[3*t+3][3*n+3]))):(e[3*t+2][3*n]=u[0].add(e[3*t+3][3*n]),e[3*t+1][3*n]=u[1].add(e[3*t+3][3*n]));break;case&quot;C&quot;:0===i?(e[3*t][3*n+1]=u[0],e[3*t][3*n+2]=u[1],e[3*t][3*n+3]=u[2]):1===i?(e[3*t+1][3*n+3]=u[0],e[3*t+2][3*n+3]=u[1],e[3*t+3][3*n+3]=u[2]):2===i?(e[3*t+3][3*n+2]=u[0],e[3*t+3][3*n+1]=u[1],0===n&amp;&amp;(e[3*t+3][3*n+0]=u[2])):(e[3*t+2][3*n]=u[0],e[3*t+1][3*n]=u[1]);break;default:console.error(&quot;mesh.js: &quot;+c+&quot; invalid path type.&quot;)}if(0===t&amp;&amp;0===n||r&gt;0){let e=window.getComputedStyle(o[r]).stopColor.match(/^rgb\s*\(\s*(\d+)\s*,\s*(\d+)\s*,\s*(\d+)\s*\)$/i),a=window.getComputedStyle(o[r]).stopOpacity,h=255;a&amp;&amp;(h=Math.floor(255*a)),e&amp;&amp;(0===i?(s[t][n]=[],s[t][n][0]=Math.floor(e[1]),s[t][n][1]=Math.floor(e[2]),s[t][n][2]=Math.floor(e[3]),s[t][n][3]=h):1===i?(s[t][n+1]=[],s[t][n+1][0]=Math.floor(e[1]),s[t][n+1][1]=Math.floor(e[2]),s[t][n+1][2]=Math.floor(e[3]),s[t][n+1][3]=h):2===i?(s[t+1][n+1]=[],s[t+1][n+1][0]=Math.floor(e[1]),s[t+1][n+1][1]=Math.floor(e[2]),s[t+1][n+1][2]=Math.floor(e[3]),s[t+1][n+1][3]=h):3===i&amp;&amp;(s[t+1][n]=[],s[t+1][n][0]=Math.floor(e[1]),s[t+1][n][1]=Math.floor(e[2]),s[t+1][n][2]=Math.floor(e[3]),s[t+1][n][3]=h))}}e[3*t+1][3*n+1]=new x,e[3*t+1][3*n+2]=new x,e[3*t+2][3*n+1]=new x,e[3*t+2][3*n+2]=new x,e[3*t+1][3*n+1].x=(-4*e[3*t][3*n].x+6*(e[3*t][3*n+1].x+e[3*t+1][3*n].x)+-2*(e[3*t][3*n+3].x+e[3*t+3][3*n].x)+3*(e[3*t+3][3*n+1].x+e[3*t+1][3*n+3].x)+-1*e[3*t+3][3*n+3].x)/9,e[3*t+1][3*n+2].x=(-4*e[3*t][3*n+3].x+6*(e[3*t][3*n+2].x+e[3*t+1][3*n+3].x)+-2*(e[3*t][3*n].x+e[3*t+3][3*n+3].x)+3*(e[3*t+3][3*n+2].x+e[3*t+1][3*n].x)+-1*e[3*t+3][3*n].x)/9,e[3*t+2][3*n+1].x=(-4*e[3*t+3][3*n].x+6*(e[3*t+3][3*n+1].x+e[3*t+2][3*n].x)+-2*(e[3*t+3][3*n+3].x+e[3*t][3*n].x)+3*(e[3*t][3*n+1].x+e[3*t+2][3*n+3].x)+-1*e[3*t][3*n+3].x)/9,e[3*t+2][3*n+2].x=(-4*e[3*t+3][3*n+3].x+6*(e[3*t+3][3*n+2].x+e[3*t+2][3*n+3].x)+-2*(e[3*t+3][3*n].x+e[3*t][3*n+3].x)+3*(e[3*t][3*n+2].x+e[3*t+2][3*n].x)+-1*e[3*t][3*n].x)/9,e[3*t+1][3*n+1].y=(-4*e[3*t][3*n].y+6*(e[3*t][3*n+1].y+e[3*t+1][3*n].y)+-2*(e[3*t][3*n+3].y+e[3*t+3][3*n].y)+3*(e[3*t+3][3*n+1].y+e[3*t+1][3*n+3].y)+-1*e[3*t+3][3*n+3].y)/9,e[3*t+1][3*n+2].y=(-4*e[3*t][3*n+3].y+6*(e[3*t][3*n+2].y+e[3*t+1][3*n+3].y)+-2*(e[3*t][3*n].y+e[3*t+3][3*n+3].y)+3*(e[3*t+3][3*n+2].y+e[3*t+1][3*n].y)+-1*e[3*t+3][3*n].y)/9,e[3*t+2][3*n+1].y=(-4*e[3*t+3][3*n].y+6*(e[3*t+3][3*n+1].y+e[3*t+2][3*n].y)+-2*(e[3*t+3][3*n+3].y+e[3*t][3*n].y)+3*(e[3*t][3*n+1].y+e[3*t+2][3*n+3].y)+-1*e[3*t][3*n+3].y)/9,e[3*t+2][3*n+2].y=(-4*e[3*t+3][3*n+3].y+6*(e[3*t+3][3*n+2].y+e[3*t+2][3*n+3].y)+-2*(e[3*t+3][3*n].y+e[3*t][3*n+3].y)+3*(e[3*t][3*n+2].y+e[3*t+2][3*n].y)+-1*e[3*t][3*n].y)/9}}this.nodes=e,this.colors=s}paintMesh(t,e){let s=(this.nodes.length-1)/3,r=(this.nodes[0].length-1)/3;if(&quot;bilinear&quot;===this.type||s&lt;2||r&lt;2){let n;for(let o=0;o&lt;s;++o)for(let s=0;s&lt;r;++s){let r=[];for(let t=3*o,e=3*o+4;t&lt;e;++t)r.push(this.nodes[t].slice(3*s,3*s+4));let i=[];i.push(this.colors[o].slice(s,s+2)),i.push(this.colors[o+1].slice(s,s+2)),(n=new m(r,i)).paint(t,e)}}else{let n,o,a,h,l,d,u;const x=s,g=r;s++,r++;let w=new Array(s);for(let t=0;t&lt;s;++t){w[t]=new Array(r);for(let e=0;e&lt;r;++e)w[t][e]=[],w[t][e][0]=this.nodes[3*t][3*e],w[t][e][1]=this.colors[t][e]}for(let t=0;t&lt;s;++t)for(let e=0;e&lt;r;++e)0!==t&amp;&amp;t!==x&amp;&amp;(n=i(w[t-1][e][0],w[t][e][0]),o=i(w[t+1][e][0],w[t][e][0]),w[t][e][2]=c(w[t-1][e][1],w[t][e][1],w[t+1][e][1],n,o)),0!==e&amp;&amp;e!==g&amp;&amp;(n=i(w[t][e-1][0],w[t][e][0]),o=i(w[t][e+1][0],w[t][e][0]),w[t][e][3]=c(w[t][e-1][1],w[t][e][1],w[t][e+1][1],n,o));for(let t=0;t&lt;r;++t){w[0][t][2]=[],w[x][t][2]=[];for(let e=0;e&lt;4;++e)n=i(w[1][t][0],w[0][t][0]),o=i(w[x][t][0],w[x-1][t][0]),w[0][t][2][e]=n&gt;0?2*(w[1][t][1][e]-w[0][t][1][e])/n-w[1][t][2][e]:0,w[x][t][2][e]=o&gt;0?2*(w[x][t][1][e]-w[x-1][t][1][e])/o-w[x-1][t][2][e]:0}for(let t=0;t&lt;s;++t){w[t][0][3]=[],w[t][g][3]=[];for(let e=0;e&lt;4;++e)n=i(w[t][1][0],w[t][0][0]),o=i(w[t][g][0],w[t][g-1][0]),w[t][0][3][e]=n&gt;0?2*(w[t][1][1][e]-w[t][0][1][e])/n-w[t][1][3][e]:0,w[t][g][3][e]=o&gt;0?2*(w[t][g][1][e]-w[t][g-1][1][e])/o-w[t][g-1][3][e]:0}for(let s=0;s&lt;x;++s)for(let r=0;r&lt;g;++r){let n=i(w[s][r][0],w[s+1][r][0]),o=i(w[s][r+1][0],w[s+1][r+1][0]),c=i(w[s][r][0],w[s][r+1][0]),x=i(w[s+1][r][0],w[s+1][r+1][0]),g=[[],[],[],[]];for(let t=0;t&lt;4;++t){(d=[])[0]=w[s][r][1][t],d[1]=w[s+1][r][1][t],d[2]=w[s][r+1][1][t],d[3]=w[s+1][r+1][1][t],d[4]=w[s][r][2][t]*n,d[5]=w[s+1][r][2][t]*n,d[6]=w[s][r+1][2][t]*o,d[7]=w[s+1][r+1][2][t]*o,d[8]=w[s][r][3][t]*c,d[9]=w[s+1][r][3][t]*x,d[10]=w[s][r+1][3][t]*c,d[11]=w[s+1][r+1][3][t]*x,d[12]=0,d[13]=0,d[14]=0,d[15]=0,u=f(d);for(let e=0;e&lt;9;++e){g[t][e]=[];for(let s=0;s&lt;9;++s)g[t][e][s]=p(u,e/8,s/8),g[t][e][s]&gt;255?g[t][e][s]=255:g[t][e][s]&lt;0&amp;&amp;(g[t][e][s]=0)}}h=[];for(let t=3*s,e=3*s+4;t&lt;e;++t)h.push(this.nodes[t].slice(3*r,3*r+4));l=y(h);for(let s=0;s&lt;8;++s)for(let r=0;r&lt;8;++r)(a=new m(l[s][r],[[[g[0][s][r],g[1][s][r],g[2][s][r],g[3][s][r]],[g[0][s][r+1],g[1][s][r+1],g[2][s][r+1],g[3][s][r+1]]],[[g[0][s+1][r],g[1][s+1][r],g[2][s+1][r],g[3][s+1][r]],[g[0][s+1][r+1],g[1][s+1][r+1],g[2][s+1][r+1],g[3][s+1][r+1]]]])).paint(t,e)}}}transform(t){if(t instanceof x)for(let e=0,s=this.nodes.length;e&lt;s;++e)for(let s=0,r=this.nodes[0].length;s&lt;r;++s)this.nodes[e][s]=this.nodes[e][s].add(t);else if(t instanceof g)for(let e=0,s=this.nodes.length;e&lt;s;++e)for(let s=0,r=this.nodes[0].length;s&lt;r;++s)this.nodes[e][s]=this.nodes[e][s].transform(t)}scale(t){for(let e=0,s=this.nodes.length;e&lt;s;++e)for(let s=0,r=this.nodes[0].length;s&lt;r;++s)this.nodes[e][s]=this.nodes[e][s].scale(t)}}document.querySelectorAll(&quot;rect,circle,ellipse,path,text&quot;).forEach((r,n)=&gt;{let o=r.getAttribute(&quot;id&quot;);o||(o=&quot;patchjs_shape&quot;+n,r.setAttribute(&quot;id&quot;,o));const i=r.style.fill.match(/^url\(\s*&quot;?\s*#([^\s&quot;]+)&quot;?\s*\)/),a=r.style.stroke.match(/^url\(\s*&quot;?\s*#([^\s&quot;]+)&quot;?\s*\)/);if(i&amp;&amp;i[1]){const a=document.getElementById(i[1]);if(a&amp;&amp;&quot;meshgradient&quot;===a.nodeName){const i=r.getBBox();let l=document.createElementNS(s,&quot;canvas&quot;);d(l,{width:i.width,height:i.height});const c=l.getContext(&quot;2d&quot;);let u=c.createImageData(i.width,i.height);const f=new b(a);&quot;objectBoundingBox&quot;===a.getAttribute(&quot;gradientUnits&quot;)&amp;&amp;f.scale(new x(i.width,i.height));const p=a.getAttribute(&quot;gradientTransform&quot;);null!=p&amp;&amp;f.transform(h(p)),&quot;userSpaceOnUse&quot;===a.getAttribute(&quot;gradientUnits&quot;)&amp;&amp;f.transform(new x(-i.x,-i.y)),f.paintMesh(u.data,l.width),c.putImageData(u,0,0);const y=document.createElementNS(t,&quot;image&quot;);d(y,{width:i.width,height:i.height,x:i.x,y:i.y});let g=l.toDataURL();y.setAttributeNS(e,&quot;xlink:href&quot;,g),r.parentNode.insertBefore(y,r),r.style.fill=&quot;none&quot;;const w=document.createElementNS(t,&quot;use&quot;);w.setAttributeNS(e,&quot;xlink:href&quot;,&quot;#&quot;+o);const m=&quot;patchjs_clip&quot;+n,M=document.createElementNS(t,&quot;clipPath&quot;);M.setAttribute(&quot;id&quot;,m),M.appendChild(w),r.parentElement.insertBefore(M,r),y.setAttribute(&quot;clip-path&quot;,&quot;url(#&quot;+m+&quot;)&quot;),u=null,l=null,g=null}}if(a&amp;&amp;a[1]){const o=document.getElementById(a[1]);if(o&amp;&amp;&quot;meshgradient&quot;===o.nodeName){const i=parseFloat(r.style.strokeWidth.slice(0,-2))*(parseFloat(r.style.strokeMiterlimit)||parseFloat(r.getAttribute(&quot;stroke-miterlimit&quot;))||1),a=r.getBBox(),l=Math.trunc(a.width+i),c=Math.trunc(a.height+i),u=Math.trunc(a.x-i/2),f=Math.trunc(a.y-i/2);let p=document.createElementNS(s,&quot;canvas&quot;);d(p,{width:l,height:c});const y=p.getContext(&quot;2d&quot;);let g=y.createImageData(l,c);const w=new b(o);&quot;objectBoundingBox&quot;===o.getAttribute(&quot;gradientUnits&quot;)&amp;&amp;w.scale(new x(l,c));const m=o.getAttribute(&quot;gradientTransform&quot;);null!=m&amp;&amp;w.transform(h(m)),&quot;userSpaceOnUse&quot;===o.getAttribute(&quot;gradientUnits&quot;)&amp;&amp;w.transform(new x(-u,-f)),w.paintMesh(g.data,p.width),y.putImageData(g,0,0);const M=document.createElementNS(t,&quot;image&quot;);d(M,{width:l,height:c,x:0,y:0});let S=p.toDataURL();M.setAttributeNS(e,&quot;xlink:href&quot;,S);const k=&quot;pattern_clip&quot;+n,A=document.createElementNS(t,&quot;pattern&quot;);d(A,{id:k,patternUnits:&quot;userSpaceOnUse&quot;,width:l,height:c,x:u,y:f}),A.appendChild(M),o.parentNode.appendChild(A),r.style.stroke=&quot;url(#&quot;+k+&quot;)&quot;,g=null,p=null,S=null}}})}();
</script></svg>
